<svg width="219" height="92" viewBox="0 0 219 92" fill="none" xmlns="http://www.w3.org/2000/svg">
<g clip-path="url(#clip0)">
<g clip-path="url(#clip1)">
<path d="M172 15.7168L170.404 14.0679L154.139 31.7847L152.22 29.8032L168.959 12.5793L167.555 11.1405L150.71 28.4717L149.121 26.8346L165.963 9.5012L164.415 7.91078L147.571 25.242L145.684 23.3006L163.071 6.51861L161.612 5.01697L145.587 17.8576C145.587 17.8576 145.006 18.3635 144.806 18.5715C142.607 20.8325 141.662 23.9041 141.976 26.8563C141.302 38.3565 131.67 40.8906 130.236 42.3661C128.65 44.0065 104.179 69.1848 104.179 69.1848L104.183 69.1889C104.165 69.2107 104.143 69.2152 104.122 69.2366C102.623 70.7795 102.627 73.2843 104.125 74.8249C105.62 76.3676 108.06 76.3676 109.553 74.8292C109.574 74.8053 109.585 74.7837 109.599 74.7663L109.604 74.7705C109.604 74.7705 133.774 49.9087 135.618 48.0083C137.282 46.2901 141.203 36.0162 151.433 35.909C151.443 35.9047 151.471 35.9004 151.485 35.9004C153.892 35.9698 156.32 35.1485 158.255 33.4087C158.392 33.285 158.706 32.9514 158.706 32.9514L172 15.7168Z" fill="white"/>
</g>
<path d="M26.0234 44.1836C20.2344 42.5195 16.0156 40.4805 13.3672 38.0664C10.7422 35.6289 9.42969 32.6289 9.42969 29.0664C9.42969 25.0352 11.0352 21.707 14.2461 19.082C17.4805 16.4336 21.6758 15.1094 26.832 15.1094C30.3477 15.1094 33.4766 15.7891 36.2188 17.1484C38.9844 18.5078 41.1172 20.3828 42.6172 22.7734C44.1406 25.1641 44.9023 27.7773 44.9023 30.6133H38.1172C38.1172 27.5195 37.1328 25.0938 35.1641 23.3359C33.1953 21.5547 30.418 20.6641 26.832 20.6641C23.5039 20.6641 20.9023 21.4023 19.0273 22.8789C17.1758 24.332 16.25 26.3594 16.25 28.9609C16.25 31.0469 17.1289 32.8164 18.8867 34.2695C20.668 35.6992 23.6797 37.0117 27.9219 38.207C32.1875 39.4023 35.5156 40.7266 37.9062 42.1797C40.3203 43.6094 42.1016 45.2852 43.25 47.207C44.4219 49.1289 45.0078 51.3906 45.0078 53.9922C45.0078 58.1406 43.3906 61.4688 40.1562 63.9766C36.9219 66.4609 32.5977 67.7031 27.1836 67.7031C23.668 67.7031 20.3867 67.0352 17.3398 65.6992C14.293 64.3398 11.9375 62.4883 10.2734 60.1445C8.63281 57.8008 7.8125 55.1406 7.8125 52.1641H14.5977C14.5977 55.2578 15.7344 57.707 18.0078 59.5117C20.3047 61.293 23.3633 62.1836 27.1836 62.1836C30.7461 62.1836 33.4766 61.457 35.375 60.0039C37.2734 58.5508 38.2227 56.5703 38.2227 54.0625C38.2227 51.5547 37.3438 49.6211 35.5859 48.2617C33.8281 46.8789 30.6406 45.5195 26.0234 44.1836ZM76.1562 67C75.7812 66.25 75.4766 64.9141 75.2422 62.9922C72.2188 66.1328 68.6094 67.7031 64.4141 67.7031C60.6641 67.7031 57.582 66.6484 55.168 64.5391C52.7773 62.4062 51.582 59.7109 51.582 56.4531C51.582 52.4922 53.082 49.4219 56.082 47.2422C59.1055 45.0391 63.3477 43.9375 68.8086 43.9375H75.1367V40.9492C75.1367 38.6758 74.457 36.8711 73.0977 35.5352C71.7383 34.1758 69.7344 33.4961 67.0859 33.4961C64.7656 33.4961 62.8203 34.082 61.25 35.2539C59.6797 36.4258 58.8945 37.8438 58.8945 39.5078H52.3555C52.3555 37.6094 53.0234 35.7812 54.3594 34.0234C55.7188 32.2422 57.5469 30.8359 59.8438 29.8047C62.1641 28.7734 64.707 28.2578 67.4727 28.2578C71.8555 28.2578 75.2891 29.3594 77.7734 31.5625C80.2578 33.7422 81.5469 36.7539 81.6406 40.5977V58.1055C81.6406 61.5977 82.0859 64.375 82.9766 66.4375V67H76.1562ZM65.3633 62.043C67.4023 62.043 69.3359 61.5156 71.1641 60.4609C72.9922 59.4062 74.3164 58.0352 75.1367 56.3477V48.543H70.0391C62.0703 48.543 58.0859 50.875 58.0859 55.5391C58.0859 57.5781 58.7656 59.1719 60.125 60.3203C61.4844 61.4688 63.2305 62.043 65.3633 62.043ZM95.0352 67V33.9883H89.0234V28.9609H95.0352V25.0586C95.0352 20.9805 96.125 17.8281 98.3047 15.6016C100.484 13.375 103.566 12.2617 107.551 12.2617C109.051 12.2617 110.539 12.4609 112.016 12.8594L111.664 18.1328C110.562 17.9219 109.391 17.8164 108.148 17.8164C106.039 17.8164 104.41 18.4375 103.262 19.6797C102.113 20.8984 101.539 22.6563 101.539 24.9531V28.9609H109.66V33.9883H101.539V67H95.0352Z" fill="white"/>
<path d="M132.652 67.7031C127.496 67.7031 123.301 66.0156 120.066 62.6406C116.832 59.2422 115.215 54.707 115.215 49.0352V47.8398C115.215 44.0664 115.93 40.7031 117.359 37.75C118.812 34.7734 120.828 32.4531 123.406 30.7891C126.008 29.1016 128.82 28.2578 131.844 28.2578C136.789 28.2578 140.633 29.8867 143.375 33.1445C146.117 36.4023 147.488 41.0664 147.488 47.1367V49.8438H121.719C121.812 53.5938 122.902 56.6289 124.988 58.9492C127.098 61.2461 129.77 62.3945 133.004 62.3945C135.301 62.3945 137.246 61.9258 138.84 60.9883C140.434 60.0508 141.828 58.8086 143.023 57.2617L146.996 60.3555C143.809 65.2539 139.027 67.7031 132.652 67.7031ZM131.844 33.6016C129.219 33.6016 127.016 34.5625 125.234 36.4844C123.453 38.3828 122.352 41.0547 121.93 44.5H140.984V44.0078C140.797 40.7031 139.906 38.1484 138.312 36.3438C136.719 34.5156 134.562 33.6016 131.844 33.6016ZM178.531 67C178.156 66.25 177.852 64.9141 177.617 62.9922C174.594 66.1328 170.984 67.7031 166.789 67.7031C163.039 67.7031 159.957 66.6484 157.543 64.5391C155.152 62.4062 153.957 59.7109 153.957 56.4531C153.957 52.4922 155.457 49.4219 158.457 47.2422C161.48 45.0391 165.723 43.9375 171.184 43.9375H177.512V40.9492C177.512 38.6758 176.832 36.8711 175.473 35.5352C174.113 34.1758 172.109 33.4961 169.461 33.4961C167.141 33.4961 165.195 34.082 163.625 35.2539C162.055 36.4258 161.27 37.8438 161.27 39.5078H154.73C154.73 37.6094 155.398 35.7812 156.734 34.0234C158.094 32.2422 159.922 30.8359 162.219 29.8047C164.539 28.7734 167.082 28.2578 169.848 28.2578C174.23 28.2578 177.664 29.3594 180.148 31.5625C182.633 33.7422 183.922 36.7539 184.016 40.5977V58.1055C184.016 61.5977 184.461 64.375 185.352 66.4375V67H178.531ZM167.738 62.043C169.777 62.043 171.711 61.5156 173.539 60.4609C175.367 59.4062 176.691 58.0352 177.512 56.3477V48.543H172.414C164.445 48.543 160.461 50.875 160.461 55.5391C160.461 57.5781 161.141 59.1719 162.5 60.3203C163.859 61.4688 165.605 62.043 167.738 62.043ZM203.035 19.75V28.9609H210.137V33.9883H203.035V57.5781C203.035 59.1016 203.352 60.25 203.984 61.0234C204.617 61.7734 205.695 62.1484 207.219 62.1484C207.969 62.1484 209 62.0078 210.312 61.7266V67C208.602 67.4688 206.938 67.7031 205.32 67.7031C202.414 67.7031 200.223 66.8242 198.746 65.0664C197.27 63.3086 196.531 60.8125 196.531 57.5781V33.9883H189.605V28.9609H196.531V19.75H203.035Z" fill="#A300FF"/>
</g>
<defs>
<clipPath id="clip0">
<rect width="219" height="92" fill="white"/>
</clipPath>
<clipPath id="clip1">
<rect width="69" height="71" fill="white" transform="translate(103 5)"/>
</clipPath>
</defs>
</svg>
